HIERARCHY
ROOT Hips
{
  OFFSET 13.6774 106.653 -34.4427
  CHANNELS 6 Xposition Yposition Zposition Zrotation Xrotation Yrotation
  JOINT ToSpine
  {
    OFFSET -2.69724 7.43032 -0.144315
    CHANNELS 3 Zrotation Xrotation Yrotation
    JOINT Spine
    {
      OFFSET -0.0310711 10.7595 1.96963
      CHANNELS 3 Zrotation Xrotation Yrotation
      JOINT Spine1
      {
        OFFSET 19.9056 3.91189 0.764692
        CHANNELS 3 Zrotation Xrotation Yrotation
        JOINT Neck
        {
          OFFSET 25.9749 7.03908 -0.130764
          CHANNELS 3 Zrotation Xrotation Yrotation
          JOINT Head
          {
            OFFSET 9.52751 0.295786 -0.907742
            CHANNELS 3 Zrotation Xrotation Yrotation
            End Site
            {
              OFFSET 16.4037 0.713936 2.7358
            }
          }
        }
        JOINT LeftShoulder
        {
          OFFSET 17.7449 4.33886 11.7777
          CHANNELS 3 Zrotation Xrotation Yrotation
          JOINT LeftArm
          {
            OFFSET 0.911315 1.27913 9.80584
            CHANNELS 3 Zrotation Xrotation Yrotation
            JOINT LeftForeArm
            {
              OFFSET 28.6126 1.18197 -3.53199
              CHANNELS 3 Zrotation Xrotation Yrotation
              JOINT LeftHand
              {
                OFFSET 27.5088 0.0218783 0.327423
                CHANNELS 3 Zrotation Xrotation Yrotation
                End Site
                {
                  OFFSET 18.6038 -0.000155887 0.382096
                }
              }
            }
          }
        }
        JOINT RightShoulder
        {
          OFFSET 17.1009 2.89543 -12.2328
          CHANNELS 3 Zrotation Xrotation Yrotation
          JOINT RightArm
          {
            OFFSET 1.4228 0.178766 -10.211
            CHANNELS 3 Zrotation Xrotation Yrotation
            JOINT RightForeArm
            {
              OFFSET 28.733 1.87905 2.64907
              CHANNELS 3 Zrotation Xrotation Yrotation
              JOINT RightHand
              {
                OFFSET 27.4588 0.290562 -0.101845
                CHANNELS 3 Zrotation Xrotation Yrotation
                End Site
                {
                  OFFSET 17.8396 -0.255518 -0.000602873
                }
              }
            }
          }
        }
      }
    }
  }
  JOINT LeftUpLeg
  {
    OFFSET -5.61296 -2.22332 -10.2353
    CHANNELS 3 Zrotation Xrotation Yrotation
    JOINT LeftLeg
    {
      OFFSET 2.56703 -44.7417 -7.93097
      CHANNELS 3 Zrotation Xrotation Yrotation
      JOINT LeftFoot
      {
        OFFSET 3.16933 -46.5642 -3.96578
        CHANNELS 3 Zrotation Xrotation Yrotation
        JOINT LeftToeBase
        {
          OFFSET 0.346054 -6.02161 12.8035
          CHANNELS 3 Zrotation Xrotation Yrotation
          End Site
          {
            OFFSET 0.134235 -1.35082 5.13018
          }
        }
      }
    }
  }
  JOINT RightUpLeg
  {
    OFFSET -5.7928 -1.72406 10.6446
    CHANNELS 3 Zrotation Xrotation Yrotation
    JOINT RightLeg
    {
      OFFSET -2.57161 -44.7178 -7.85259
      CHANNELS 3 Zrotation Xrotation Yrotation
      JOINT RightFoot
      {
        OFFSET -3.10148 -46.5936 -4.03391
        CHANNELS 3 Zrotation Xrotation Yrotation
        JOINT RightToeBase
        {
          OFFSET -0.0828122 -6.13587 12.8035
          CHANNELS 3 Zrotation Xrotation Yrotation
          End Site
          {
            OFFSET -0.131328 -1.35082 5.13018
          }
        }
      }
    }
  }
}
MOTION
Frames: 15
Frame Time: 0.03333333333333333
0.0000 93.1000 0.0000 67.8397 -14.5364 -23.6794 -71.0656 0.3066 87.8807 138.5914 51.5427 -63.6097 9.9593 16.9737 -3.6095 -165.1061 34.1760 157.9297 170.9777 73.0382 -142.9467 -0.4955 -13.6440 -20.9291 -79.8915 42.4905 -170.5209 7.2031 28.3968 -18.0631 8.8637 -0.5089 -7.0723 -0.5327 0.9120 33.1015 -77.9143 -47.9358 96.2769 11.3297 -6.4819 60.5091 15.8190 0.7870 0.2855 -20.9796 6.3599 86.9611 -13.3955 72.1178 -8.8459 5.7833 -4.9458 -1.5601 -8.7134 -38.0265 15.0192 3.4006 -13.1263 66.7852 149.7978 81.5900 -147.6034 -7.7453 -3.6377 1.0857 11.5948 -27.1579 -13.9727 
0.0000 93.1000 0.0000 66.1812 -15.8015 -29.0050 -71.0845 0.3675 87.8932 137.6489 51.6828 -62.7256 8.7906 16.1650 -3.7436 -166.0243 34.9011 159.9945 171.7218 73.0615 -142.7980 -0.7917 -12.8263 -19.5483 -71.8995 32.4804 -174.4623 13.1617 21.3117 -29.3835 11.3028 -0.3211 -8.8819 -0.6203 1.7795 33.4441 -74.6104 -47.9911 94.2724 10.6547 -7.1238 55.1623 15.2946 1.2472 0.6291 -25.0699 6.4806 90.9637 -11.1333 69.2438 -11.9525 5.5849 -5.3103 -2.0242 -8.9898 -39.0837 13.7743 2.2883 -11.8234 69.6044 137.5060 84.4446 -136.6905 -6.7994 -2.4482 1.1461 11.1523 -26.1269 -14.4367 
0.0000 93.1000 0.0000 64.1739 -19.4109 -30.9796 -71.0810 -0.2335 87.9740 136.8098 53.4963 -60.8064 7.5301 16.9408 -5.3959 -165.1583 34.5155 162.5050 176.3325 72.8290 -148.0712 2.6616 -10.7708 -22.1710 -67.6005 32.1173 -170.4885 15.8867 17.8221 -38.3228 11.6549 -3.5603 -6.9496 -0.6124 2.8413 31.7663 -70.5491 -50.9778 94.1074 4.7296 -2.7032 49.4128 16.4891 -2.2006 2.8131 -29.9699 7.3077 93.0942 -10.5642 66.2255 -15.7153 5.0586 -6.4392 0.7496 -8.8313 -38.3035 15.3847 -1.9731 -10.4234 69.7221 102.1151 86.4915 -100.6282 -6.1221 -3.3321 -0.5911 8.3572 -13.7679 -16.2621 
0.0000 93.1000 0.0000 59.1690 -23.5401 -34.2714 -70.9704 0.3906 87.9050 135.6816 56.5461 -57.6732 8.8643 18.1286 -4.8506 -163.6519 33.9688 163.0320 -181.1162 73.6049 -152.5163 -0.3089 -9.7019 -24.1131 -64.6324 34.5990 -161.4886 14.4580 16.5241 -36.1514 11.5296 -0.4068 -8.6115 -0.8464 3.4121 31.7034 -66.0806 -53.2711 96.3692 -5.7226 6.7275 44.8319 12.3520 1.3239 1.5521 -33.2945 7.6752 90.7115 -9.9646 65.9240 -15.7159 1.9675 -8.6675 -1.8905 -7.7996 -35.6961 19.4764 -7.8717 -6.5800 67.3865 50.9780 85.2011 -46.9950 -6.8570 -6.1657 1.0925 7.4686 -11.1136 -14.1048 
0.0000 93.1000 0.0000 55.8872 -27.8884 -36.5738 -70.9655 0.2069 87.9413 136.9478 59.2469 -55.6781 9.7164 18.9151 -4.6345 -163.5772 32.3299 163.7388 -177.4382 72.4426 -159.4787 1.1675 -7.8355 -26.1151 -66.7644 39.6595 -150.3133 10.8962 20.2760 -26.4775 12.7947 -1.2173 -5.7355 -1.0117 3.2476 32.7158 -63.7515 -53.3025 98.2657 -8.3714 11.6603 42.5710 12.8234 0.0578 1.9070 -32.3898 6.9179 84.0911 -16.2284 75.0175 -5.9330 -0.7856 -4.9105 -0.2776 -6.8351 -28.8216 18.9548 -12.3204 -2.8908 66.8215 31.8871 83.4971 -22.6905 -7.1529 -3.6424 0.4234 10.2667 -21.0135 -15.2798 
0.0000 93.1000 0.0000 54.0033 -34.0472 -38.5358 -70.9756 0.2147 87.9387 139.0359 59.7918 -56.9699 10.7744 20.0072 -3.2791 -165.5091 30.8695 167.2901 -170.8241 71.1019 -163.4718 1.3790 -5.8345 -28.9636 -85.3029 48.1168 -126.1238 4.7301 34.1762 -15.1467 13.2538 -0.9399 -2.9276 -1.0330 3.0562 32.8883 -66.7132 -52.3218 99.3893 -6.9453 11.3505 41.4872 12.2667 -0.0582 1.9756 -30.3206 2.8194 77.9236 -52.8533 84.0992 36.3130 0.9630 1.7784 -0.0361 -6.8060 -27.7139 18.1830 -19.5391 -0.3725 66.6704 32.4324 82.7620 -20.9044 -7.1603 -5.0816 0.4802 9.3671 -19.9215 -14.3097 
0.0000 93.1000 0.0000 49.1338 -42.0739 -41.8793 -71.0029 0.2615 87.9124 142.8790 59.7122 -57.6920 12.2935 20.9675 -4.1162 -168.6168 29.7652 170.3925 -167.1465 69.2046 -166.5939 1.5634 -3.9455 -31.7582 -102.5952 47.0885 -101.3929 -0.7988 40.3722 -4.7684 15.0524 -0.4491 -0.5955 -1.0233 2.2187 33.2548 -70.9044 -50.1303 103.2902 -7.9332 10.8979 41.9127 11.7697 0.0494 2.6200 -27.1003 1.9617 74.6014 -155.0497 79.0137 147.6680 4.6997 4.8913 -0.7887 -7.5183 -36.5976 18.0202 -25.6830 5.9945 68.7920 33.1645 82.8985 -22.2995 -7.7619 -6.6017 0.8433 9.0560 -19.1300 -12.0677 
0.0000 93.1000 0.0000 41.0172 -48.6016 -47.4423 -70.9780 0.2134 87.8965 146.8298 60.2325 -58.2610 11.9257 22.3568 -3.7550 -170.6859 28.5633 171.3095 -160.3563 67.7757 -172.7509 1.7448 -2.7735 -31.9970 -107.6129 42.3596 -85.2124 -4.7870 38.4615 2.9183 14.7815 -0.5133 0.2198 -0.8242 2.2957 31.6410 -75.5925 -50.1560 108.5022 -7.7742 7.9073 47.5776 11.5486 -0.1274 3.1100 -18.1452 1.9717 73.9656 -166.7248 69.1415 162.4545 5.7664 5.1278 -0.9123 -8.7742 -39.6443 16.9658 -31.6505 12.0188 73.9094 28.1880 81.4776 -14.5473 -8.0393 -8.2661 1.1032 9.1902 -19.8038 -12.0730 
0.0000 93.1000 0.0000 31.7962 -51.3334 -57.4035 -70.9571 0.2255 87.8910 147.8769 61.1759 -59.9823 9.7890 23.7110 -2.8838 -174.7903 27.3931 174.3180 -160.0696 66.0092 -174.0130 1.5299 -2.7917 -31.0632 -106.5581 41.2264 -73.2101 -9.0264 37.0839 6.9665 14.2324 -0.2880 -0.1671 -0.6232 2.5013 28.0430 -80.9860 -51.0524 115.3708 -3.9663 2.4275 55.8547 10.2144 0.0650 3.5295 -5.5083 0.0429 75.9769 -166.2906 66.1316 159.3553 6.3164 3.3660 -1.3597 -9.0482 -38.8303 14.8826 -37.1674 14.0375 78.9202 18.8067 78.8961 -2.1277 -9.7769 -9.3315 1.4346 9.8628 -23.3057 -13.2710 
0.0000 93.1000 0.0000 23.7299 -54.2905 -68.5474 -70.9632 0.1545 87.8935 150.8876 61.9613 -65.6354 7.4695 25.3408 -3.3388 -176.5032 26.2385 175.9767 -159.0921 65.2882 -177.4738 1.5915 -4.4971 -30.6789 -102.6571 41.0324 -67.2255 -12.2819 40.4025 7.0893 13.2940 -0.7851 -1.5144 -0.2959 2.8768 22.6803 -82.6905 -51.0352 124.5646 2.6354 -1.0389 67.7067 10.3637 -0.3364 4.3907 1.6819 0.1413 81.7137 -164.6261 69.9805 154.2330 5.2310 1.6723 -1.0672 -8.7189 -39.7134 14.4818 -46.6740 10.3016 85.5410 10.5590 70.7795 10.9581 -11.0479 -10.4147 1.4023 10.7542 -24.2268 -12.2005 
0.0000 93.1000 0.0000 18.9932 -53.3094 -76.5855 -70.9831 0.1137 87.8796 152.0186 63.3110 -67.5242 4.9545 26.4084 -4.7889 -175.5924 25.7518 174.1534 -156.1884 64.8417 -180.3978 1.6139 -5.8129 -30.1050 -98.7718 41.1047 -67.1300 -15.1426 43.1493 7.9477 14.7320 -1.0945 -2.2843 -0.0146 2.5295 17.9284 -83.6763 -50.6744 131.3802 9.4773 -2.6578 78.6720 11.0021 -0.4703 5.8357 7.6825 2.1587 89.9505 -154.5330 79.0613 143.0460 4.6833 1.4780 -0.9117 -8.6032 -40.3849 15.7236 -55.6680 7.2890 90.7550 5.7323 59.3587 16.8191 -11.1175 -11.3212 1.3036 9.8005 -19.6681 -12.0232 
0.0000 93.1000 0.0000 19.2948 -51.3175 -79.6700 -70.9270 0.1211 87.9559 147.8072 64.5036 -66.7821 3.4303 26.6182 -6.2649 -170.6443 25.8268 173.3523 -155.7597 64.8261 179.2645 1.0907 -6.3742 -30.0394 -99.5558 40.3491 -73.5108 -16.7819 49.1631 10.7424 13.9191 -0.8371 -3.2531 0.2039 2.6837 15.7491 -81.4828 -49.0535 134.0389 14.8400 -2.3232 85.9221 9.7443 0.1104 7.5731 7.7322 2.8006 97.9091 -111.4848 85.2979 100.3842 3.2934 0.4835 -1.1582 -9.1492 -37.5788 14.4284 -62.7340 4.1630 94.4385 2.9012 48.4297 14.4985 -9.5676 -11.3168 1.4693 -0.1542 -0.8297 -4.3138 
0.0000 93.1000 0.0000 22.2463 -49.0789 -75.4095 -70.8256 0.1238 88.0558 140.9939 66.5780 -56.3796 4.0741 26.0824 -7.8134 -165.7827 25.8972 170.0303 -153.1666 64.2305 177.0387 0.8290 -5.4495 -30.9800 -96.5015 38.2095 -86.4813 -17.1240 48.9497 11.1492 13.6847 -0.9508 -4.3870 -0.8336 2.1865 17.7347 -74.9539 -45.8401 132.7303 14.2866 -2.4613 86.8288 8.3171 0.4325 7.9587 3.3398 2.2879 101.1696 -58.1591 85.1580 44.8355 2.9390 1.0207 -1.2198 -7.7756 -35.5743 14.1966 -64.8250 5.1863 91.6642 3.1765 47.3475 6.9131 -4.1276 -1.9533 0.2028 -41.3489 42.2423 37.6599 
0.0000 93.1000 0.0000 22.4108 -49.2608 -72.2433 -70.8105 -0.0300 88.0737 138.0348 67.6909 -51.6846 6.8839 25.0707 -9.1722 -164.7136 25.8058 169.7417 -155.7471 63.9611 179.3571 1.7992 -4.5520 -31.9092 -93.8629 35.1011 -101.5320 -16.8505 43.5280 9.9009 13.8102 -1.7519 -3.7109 -1.1491 2.0190 21.0254 -67.9479 -45.1415 127.4770 16.9870 -4.4704 80.6345 7.7057 -0.4083 7.5966 -5.2382 2.2083 99.4910 -39.8079 83.0187 25.3488 4.1761 -0.8984 -0.8326 -8.9632 -35.8319 13.1833 -61.8389 9.8958 88.9203 4.3487 63.8600 -2.2921 -4.3874 1.7276 -0.4020 -47.5878 56.3998 37.1277 
0.0000 93.1000 0.0000 24.2736 -50.9557 -74.7606 -70.8920 0.0712 87.9640 134.9197 67.4561 -53.8998 9.4756 23.7428 -8.7430 -164.8109 25.1546 169.6168 -156.2226 63.9998 181.1904 1.6862 -3.5212 -31.1531 -92.9951 32.8888 -116.7163 -14.3353 41.1797 6.6776 14.9722 -1.0769 -3.7020 -0.2011 2.2011 24.9634 -63.6156 -47.0310 119.5341 18.0850 -7.7542 68.4734 5.7745 0.1678 4.7965 -18.1213 -0.3035 100.9109 -18.7315 77.3401 1.4021 4.7500 1.4997 -1.3648 -10.5653 -46.8702 9.1087 -54.0779 8.9421 88.8871 64.1571 86.8154 -65.8251 -4.7086 2.4365 -0.2105 -17.9419 57.4553 -1.4106 
